<?xml version="1.0" encoding="UTF-8" standalone="no"?>
<!-- Created with Inkscape (http://www.inkscape.org/) -->
<svg
   xmlns:dc="http://purl.org/dc/elements/1.1/"
   xmlns:cc="http://web.resource.org/cc/"
   xmlns:rdf="http://www.w3.org/1999/02/22-rdf-syntax-ns#"
   xmlns:svg="http://www.w3.org/2000/svg"
   xmlns="http://www.w3.org/2000/svg"
   xmlns:sodipodi="http://sodipodi.sourceforge.net/DTD/sodipodi-0.dtd"
   xmlns:inkscape="http://www.inkscape.org/namespaces/inkscape"
   version="1.0"
   x="0.00000000"
   y="0.00000000"
   width="731.60999"
   height="251.95"
   viewBox="-25 0 -25 400"
   id="svg2"
   sodipodi:version="0.32"
   inkscape:version="0.45.1"
   sodipodi:docname="Cartas_Zener.svg"
   inkscape:output_extension="org.inkscape.output.svg.inkscape"
   sodipodi:docbase="C:\Wiki Uploads\Commons">
  <metadata
     id="metadata1329">
    <rdf:RDF>
      <cc:Work
         rdf:about="">
        <dc:format>image/svg+xml</dc:format>
        <dc:type
           rdf:resource="http://purl.org/dc/dcmitype/StillImage" />
      </cc:Work>
    </rdf:RDF>
  </metadata>
  <sodipodi:namedview
     inkscape:window-height="712"
     inkscape:window-width="1024"
     inkscape:pageshadow="2"
     inkscape:pageopacity="0.0"
     borderopacity="1.0"
     bordercolor="#666666"
     pagecolor="#ffffff"
     id="base"
     inkscape:zoom="1.2834707"
     inkscape:cx="365.80499"
     inkscape:cy="125.975"
     inkscape:window-x="35"
     inkscape:window-y="14"
     inkscape:current-layer="g6261"
     width="671.61px" />
  <defs
     id="defs4" />
  <g
     id="g1937"
     transform="translate(-535,1.921275)">
    <path
       d="M 572.26746,20.074062 L 669.34551,20.074062 C 677.80368,20.074062 684.61297,26.883351 684.61297,35.341527 L 684.61297,212.76126 C 684.61297,221.21944 677.80368,228.02872 669.34551,228.02872 L 572.26746,228.02872 C 563.80929,228.02872 557,221.21944 557,212.76126 L 557,35.341527 C 557,26.883351 563.80929,20.074062 572.26746,20.074062 z "
       style="fill:white;fill-opacity:1;stroke:black;stroke-width:4.00000238;stroke-linecap:round;stroke-linejoin:round;stroke-miterlimit:4;stroke-dashoffset:0;stroke-opacity:1"
       id="rect2091" />
    <path
       d="M 668.96545,124.05139 C 668.96545,150.88923 647.39023,172.67066 620.80648,172.67066 C 594.22274,172.67066 572.64752,150.88923 572.64752,124.05139 C 572.64752,97.213555 594.22274,75.43212 620.80648,75.43212 C 647.39023,75.43212 668.96545,97.213555 668.96545,124.05139 z "
       style="fill:none;stroke:#f6c708;stroke-width:10.00000477;stroke-linecap:round;stroke-linejoin:round;stroke-miterlimit:4;stroke-dashoffset:0;stroke-opacity:1"
       id="path2093" />
  </g>
  
</svg>
