<?xml version="1.0" encoding="UTF-8" standalone="no"?>
<!-- Created with Inkscape (http://www.inkscape.org/) -->
<svg
   xmlns:dc="http://purl.org/dc/elements/1.1/"
   xmlns:cc="http://web.resource.org/cc/"
   xmlns:rdf="http://www.w3.org/1999/02/22-rdf-syntax-ns#"
   xmlns:svg="http://www.w3.org/2000/svg"
   xmlns="http://www.w3.org/2000/svg"
   xmlns:sodipodi="http://sodipodi.sourceforge.net/DTD/sodipodi-0.dtd"
   xmlns:inkscape="http://www.inkscape.org/namespaces/inkscape"
   version="1.0"
   x="0.00000000"
   y="0.00000000"
   width="731.60999"
   height="251.95"
   id="svg2"
   sodipodi:version="0.32"
   inkscape:version="0.45.1"
   sodipodi:docname="Cartas_Zener.svg"
   inkscape:output_extension="org.inkscape.output.svg.inkscape"
   sodipodi:docbase="C:\Wiki Uploads\Commons">
  <metadata
     id="metadata1329">
    <rdf:RDF>
      <cc:Work
         rdf:about="">
        <dc:format>image/svg+xml</dc:format>
        <dc:type
           rdf:resource="http://purl.org/dc/dcmitype/StillImage" />
      </cc:Work>
    </rdf:RDF>
  </metadata>
  <sodipodi:namedview
     inkscape:window-height="712"
     inkscape:window-width="1024"
     inkscape:pageshadow="2"
     inkscape:pageopacity="0.0"
     borderopacity="1.0"
     bordercolor="#666666"
     pagecolor="#ffffff"
     id="base"
     inkscape:zoom="1.2834707"
     inkscape:cx="365.80499"
     inkscape:cy="125.975"
     inkscape:window-x="35"
     inkscape:window-y="14"
     inkscape:current-layer="g6261"
     width="671.61px" />
  <defs
     id="defs4" />
  <g
     id="g1916"
     transform="translate(150,1.921275)">
    <path
       d="M 167.26747,20.074061 L 264.34551,20.074061 C 272.80369,20.074061 279.61298,26.88335 279.61298,35.341526 L 279.61298,212.76126 C 279.61298,221.21944 272.80369,228.02872 264.34551,228.02872 L 167.26747,228.02872 C 158.80929,228.02872 152,221.21944 152,212.76126 L 152,35.341526 C 152,26.88335 158.80929,20.074061 167.26747,20.074061 z "
       style="fill:white;fill-opacity:1;stroke:black;stroke-width:4.00000238;stroke-linecap:round;stroke-linejoin:round;stroke-miterlimit:4;stroke-dashoffset:0;stroke-opacity:1"
       id="rect2081" />
    <g
       id="g6261">
      <path
         style="fill:#094cf6"
         d="M 214.18353,162.2364 C 216.70225,157.11315 217.47481,150.9023 214.71678,145.71923 C 212.64745,141.54197 209.86722,137.92097 207.30197,134.04859 C 203.23119,128.78345 200.03838,122.21282 201.49149,115.52209 C 202.25618,110.67723 205.20902,106.499 207.5146,102.26541 C 209.77307,98.544822 211.99853,94.506101 213.06113,90.215387 C 214.19498,84.330018 212.41724,75.706458 208.36796,71.08837 L 220.46377,71.092562 C 223.32532,75.58687 226.60533,80.437623 226.05693,85.950362 C 226.52262,93.159192 221.85285,99.281953 218.70353,105.45645 C 214.95406,111.33262 212.17572,118.79972 215.26838,125.489 C 218.15048,131.83291 222.91366,137.17774 226.32099,143.26488 C 229.18471,147.78946 229.41533,153.42474 228.28393,158.47706 C 226.15889,164.07657 223.09337,171.16584 220.57332,176.59906 L 207.45667,176.58189 C 209.11168,171.58162 211.89648,166.98869 214.18353,162.2364 z "
         id="path2161"
         sodipodi:nodetypes="cccccccccccccccc" />
      <path
         sodipodi:nodetypes="cccccccccccccccc"
         id="path2248"
         d="M 193.92596,162.2364 C 196.44468,157.11315 197.21724,150.9023 194.45921,145.71923 C 192.38988,141.54197 189.60965,137.92097 187.0444,134.04859 C 182.97362,128.78345 179.78081,122.21282 181.23392,115.52209 C 181.99861,110.67723 184.95145,106.499 187.25703,102.26541 C 189.5155,98.544822 191.74096,94.506101 192.80356,90.215387 C 193.93741,84.330018 192.15967,75.706458 188.11039,71.08837 L 200.2062,71.092562 C 203.06775,75.58687 206.34776,80.437623 205.79936,85.950362 C 206.26505,93.159192 201.59528,99.281953 198.44596,105.45645 C 194.69649,111.33262 191.91815,118.79972 195.01081,125.489 C 197.89291,131.83291 202.65609,137.17774 206.06342,143.26488 C 208.92714,147.78946 209.15776,153.42474 208.02636,158.47706 C 205.90132,164.07657 202.8358,171.16584 200.31575,176.59906 L 187.1991,176.58189 C 188.85411,171.58162 191.63891,166.98869 193.92596,162.2364 z "
         style="fill:#094cf6" />
      <path
         sodipodi:nodetypes="cccccccccccccccc"
         id="path2250"
         d="M 234.4411,162.2364 C 236.95982,157.11315 237.73238,150.9023 234.97435,145.71923 C 232.90502,141.54197 230.12479,137.92097 227.55954,134.04859 C 223.48876,128.78345 220.29595,122.21282 221.74906,115.52209 C 222.51375,110.67723 225.46659,106.499 227.77217,102.26541 C 230.03064,98.544822 232.2561,94.506101 233.3187,90.215387 C 234.45255,84.330018 232.67481,75.706458 228.62553,71.08837 L 240.72134,71.092562 C 243.58289,75.58687 246.8629,80.437623 246.3145,85.950362 C 246.78019,93.159192 242.11042,99.281953 238.9611,105.45645 C 235.21163,111.33262 232.43329,118.79972 235.52595,125.489 C 238.40805,131.83291 243.17123,137.17774 246.57856,143.26488 C 249.44228,147.78946 249.6729,153.42474 248.5415,158.47706 C 246.41646,164.07657 243.35094,171.16584 240.83089,176.59906 L 227.71424,176.58189 C 229.36925,171.58162 232.15405,166.98869 234.4411,162.2364 z "
         style="fill:#094cf6" />
    </g>
  </g>
</svg>
